<?xml version="1.0" encoding="iso-8859-1"?>
<!-- Generator: Adobe Illustrator 19.0.0, SVG Export Plug-In . SVG Version: 6.00 Build 0)  -->
<svg xmlns="http://www.w3.org/2000/svg" xmlns:xlink="http://www.w3.org/1999/xlink" version="1.1" id="Layer_1" x="0px" y="0px" viewBox="0 0 511.993 511.993" style="enable-background:new 0 0 511.993 511.993;" xml:space="preserve" width="512px" height="512px">
<g>
	<g>
		<path d="M510.086,180.583l-53.062-84.897c-1.953-3.125-5.359-5.016-9.047-5.016h-95.906c-0.047,0-0.078,0-0.125,0H160.011    c-0.023,0-0.055,0-0.086,0h-95.93c-3.672,0-7.093,1.891-9.046,5.016L1.621,181.013c-2.055,3.289-2.164,7.43-0.281,10.82    c1.875,3.398,5.445,5.5,9.328,5.5h103.46l123.687,89.647L79.073,402.027c-4.773,3.451-5.836,10.123-2.383,14.889    c2.086,2.875,5.344,4.406,8.648,4.406c2.172,0,4.359-0.656,6.25-2.031l164.405-119.139l164.39,119.139    c1.891,1.375,4.094,2.031,6.25,2.031c3.312,0,6.562-1.531,8.656-4.406c3.453-4.766,2.391-11.438-2.375-14.889L274.166,286.98    l123.687-89.647h103.452c0.016,0,0.016,0,0.016,0c5.891,0,10.672-4.773,10.672-10.664    C511.992,184.403,511.289,182.309,510.086,180.583z M125.792,175.997H29.91l39.999-63.999h75.633L125.792,175.997z     M167.862,111.998h77.46v63.999H148.12L167.862,111.998z M255.994,273.793l-105.515-76.46h211.014L255.994,273.793z     M266.658,175.997v-63.999h77.46l19.75,63.999H266.658z M386.181,175.997l-19.734-63.999h75.625l39.999,63.999H386.181z" fill="#4989c7"/>
	</g>
</g>
<g>
</g>
<g>
</g>
<g>
</g>
<g>
</g>
<g>
</g>
<g>
</g>
<g>
</g>
<g>
</g>
<g>
</g>
<g>
</g>
<g>
</g>
<g>
</g>
<g>
</g>
<g>
</g>
<g>
</g>
</svg>
