<?xml version="1.0" encoding="iso-8859-1"?>
<!-- Generator: Adobe Illustrator 19.0.0, SVG Export Plug-In . SVG Version: 6.00 Build 0)  -->
<svg xmlns="http://www.w3.org/2000/svg" xmlns:xlink="http://www.w3.org/1999/xlink" version="1.1" id="Layer_1" x="0px" y="0px" viewBox="0 0 512 512" style="enable-background:new 0 0 512 512;" xml:space="preserve" width="512px" height="512px">
<g>
	<g>
		<path d="M338.259,0H173.741c-40.344,0-73.17,32.786-73.17,73.08v128.062v301.714c0,5.053,4.094,9.143,9.143,9.143h292.571    c5.049,0,9.143-4.089,9.143-9.143V201.143V73.08C411.429,32.786,378.603,0,338.259,0z M393.143,493.714H118.857V210.286h274.286    V493.714z M393.143,192H118.857V73.08c0-30.214,24.621-54.795,54.884-54.795h164.518c30.263,0,54.884,24.58,54.884,54.795V192z" fill="#4989c7"/>
	</g>
</g>
<g>
	<g>
		<rect x="274.286" y="246.857" width="27.429" height="18.286" fill="#4989c7"/>
	</g>
</g>
<g>
	<g>
		<rect x="310.857" y="246.857" width="64" height="18.286" fill="#4989c7"/>
	</g>
</g>
<g>
	<g>
		<rect x="274.286" y="137.143" width="27.429" height="18.286" fill="#4989c7"/>
	</g>
</g>
<g>
	<g>
		<rect x="310.857" y="137.143" width="64" height="18.286" fill="#4989c7"/>
	</g>
</g>
<g>
</g>
<g>
</g>
<g>
</g>
<g>
</g>
<g>
</g>
<g>
</g>
<g>
</g>
<g>
</g>
<g>
</g>
<g>
</g>
<g>
</g>
<g>
</g>
<g>
</g>
<g>
</g>
<g>
</g>
</svg>
