<?xml version="1.0" encoding="iso-8859-1"?>
<!-- Generator: Adobe Illustrator 19.0.0, SVG Export Plug-In . SVG Version: 6.00 Build 0)  -->
<svg xmlns="http://www.w3.org/2000/svg" xmlns:xlink="http://www.w3.org/1999/xlink" version="1.1" id="Layer_1" x="0px" y="0px" viewBox="0 0 511.999 511.999" style="enable-background:new 0 0 511.999 511.999;" xml:space="preserve" width="512px" height="512px">
<g>
	<g>
		<path d="M478.903,57.456c-3.901-1.463-6.521-5.245-6.521-9.411s2.62-7.948,6.521-9.411c8.634-3.238,13.009-12.861,9.77-21.495    c-3.237-8.634-12.864-13.007-21.495-9.77c-16.86,6.323-28.189,22.669-28.189,40.676s11.327,34.352,28.189,40.676    c3.901,1.463,6.521,5.245,6.521,9.411s-2.62,7.948-6.521,9.411c-8.634,3.238-13.009,12.861-9.77,21.495    c2.513,6.703,8.875,10.838,15.635,10.838c1.948,0,3.929-0.344,5.86-1.067c16.86-6.323,28.188-22.669,28.188-40.676    C507.091,80.125,495.763,63.78,478.903,57.456z" fill="#4989c7"/>
	</g>
</g>
<g>
	<g>
		<path d="M395.426,57.456c-3.901-1.463-6.521-5.245-6.521-9.411s2.62-7.948,6.521-9.411c8.634-3.238,13.009-12.861,9.77-21.495    c-3.237-8.634-12.864-13.007-21.495-9.77c-16.86,6.323-28.189,22.669-28.189,40.676s11.327,34.352,28.189,40.676    c3.901,1.463,6.521,5.245,6.521,9.411s-2.62,7.948-6.521,9.411c-8.634,3.238-13.009,12.861-9.77,21.495    c2.513,6.703,8.875,10.838,15.635,10.838c1.948,0,3.929-0.344,5.86-1.067c16.86-6.323,28.188-22.669,28.188-40.676    C423.614,80.125,412.286,63.78,395.426,57.456z" fill="#4989c7"/>
	</g>
</g>
<g>
	<g>
		<path d="M128.3,57.456c-3.901-1.463-6.521-5.245-6.521-9.411s2.62-7.948,6.521-9.411c8.634-3.238,13.009-12.861,9.77-21.495    c-3.237-8.634-12.865-13.007-21.495-9.77c-16.861,6.323-28.19,22.669-28.19,40.676s11.328,34.352,28.19,40.676    c3.901,1.463,6.521,5.245,6.521,9.411s-2.62,7.948-6.521,9.411c-8.634,3.238-13.009,12.861-9.77,21.495    c2.513,6.703,8.875,10.838,15.635,10.838c1.948,0,3.929-0.344,5.86-1.067c16.86-6.323,28.189-22.669,28.189-40.676    C156.488,80.125,145.16,63.78,128.3,57.456z" fill="#4989c7"/>
	</g>
</g>
<g>
	<g>
		<path d="M44.822,57.456c-3.901-1.463-6.521-5.245-6.521-9.411s2.62-7.948,6.521-9.411c8.634-3.238,13.009-12.861,9.77-21.495    C51.355,8.507,41.727,4.134,33.098,7.37c-16.861,6.323-28.19,22.669-28.19,40.676s11.328,34.352,28.19,40.676    c3.901,1.463,6.521,5.245,6.521,9.411s-2.62,7.948-6.521,9.411c-8.634,3.238-13.009,12.861-9.77,21.495    c2.513,6.703,8.875,10.838,15.635,10.838c1.948,0,3.929-0.344,5.86-1.067c16.86-6.323,28.189-22.669,28.189-40.676    C73.011,80.125,61.682,63.78,44.822,57.456z" fill="#4989c7"/>
	</g>
</g>
<g>
	<g>
		<path d="M510.359,406.123c-3.978-8.317-13.944-11.833-22.266-7.854c-23.278,11.139-51.087,9.16-72.575-5.164    c-13.155-8.77-27.714-14.325-42.651-16.694V273.434h33.391v50.086c0,27.618,22.469,50.086,50.086,50.086    s50.086-22.469,50.086-50.086V223.348c0-27.618-22.469-50.086-50.086-50.086H322.735c10.505-13.962,16.741-31.308,16.741-50.086    c0-46.029-37.448-83.477-83.477-83.477s-83.477,37.448-83.477,83.477c0,18.778,6.236,36.124,16.741,50.086H55.655    c-27.618,0-50.086,22.469-50.086,50.086V323.52c0,27.618,22.469,50.086,50.086,50.086s50.086-22.469,50.086-50.086v-50.086h33.391    v102.977c-14.937,2.37-29.497,7.924-42.651,16.694c-21.486,14.323-49.295,16.304-72.575,5.164    c-8.317-3.979-18.286-0.463-22.266,7.854c-3.98,8.317-0.464,18.286,7.854,22.266c33.846,16.196,74.276,13.321,105.509-7.501    c12.237-8.157,26.236-12.281,40.259-12.39c0.189,0.007,0.375,0.029,0.565,0.029c0.19,0,0.376-0.022,0.565-0.029    c14.023,0.108,28.024,4.233,40.259,12.39c18.026,12.017,38.687,18.025,59.347,18.025c20.66,0,41.321-6.008,59.347-18.025    c12.237-8.157,26.236-12.281,40.26-12.39c0.189,0.007,0.374,0.029,0.565,0.029c0.191,0,0.376-0.022,0.567-0.029    c14.024,0.108,28.024,4.233,40.259,12.39c31.235,20.823,71.664,23.699,105.509,7.501    C510.823,424.409,514.34,414.44,510.359,406.123z M255.999,73.089c27.618,0,50.086,22.469,50.086,50.086    c0,27.618-22.469,50.086-50.086,50.086s-50.086-22.469-50.086-50.086C205.913,95.558,228.382,73.089,255.999,73.089z     M356.172,240.043c-9.22,0-16.695,7.475-16.695,16.695v119.673c-14.937,2.37-29.496,7.925-42.651,16.694    c-24.802,16.533-56.849,16.533-81.65,0c-13.155-8.77-27.714-14.324-42.651-16.693V256.738c0-9.22-7.475-16.695-16.695-16.695    H89.045c-9.22,0-16.695,7.475-16.695,16.695v66.782c0,9.206-7.49,16.695-16.695,16.695c-9.206,0-16.695-7.49-16.695-16.695    V223.348c0-9.206,7.49-16.695,16.695-16.695h400.69c9.206,0,16.695,7.49,16.695,16.695V323.52c0,9.206-7.49,16.695-16.695,16.695    c-9.206,0-16.695-7.49-16.695-16.695v-66.782c0-9.22-7.475-16.695-16.695-16.695H356.172z" fill="#4989c7"/>
	</g>
</g>
<g>
	<g>
		<path d="M510.359,472.905c-3.978-8.317-13.944-11.834-22.265-7.854c-23.278,11.139-51.087,9.159-72.575-5.164    c-36.052-24.035-82.642-24.035-118.694,0c-24.802,16.533-56.849,16.533-81.65,0c-36.053-24.034-82.643-24.034-118.694,0    c-21.486,14.325-49.295,16.304-72.575,5.164c-8.317-3.979-18.286-0.463-22.266,7.854c-3.98,8.318-0.464,18.286,7.854,22.266    c33.846,16.196,74.276,13.321,105.509-7.501c24.802-16.533,56.849-16.533,81.651,0c18.025,12.017,38.687,18.026,59.347,18.026    s41.321-6.008,59.347-18.026c24.802-16.533,56.851-16.533,81.651,0c31.235,20.823,71.664,23.697,105.509,7.501    C510.823,491.191,514.34,481.221,510.359,472.905z" fill="#4989c7"/>
	</g>
</g>
<g>
</g>
<g>
</g>
<g>
</g>
<g>
</g>
<g>
</g>
<g>
</g>
<g>
</g>
<g>
</g>
<g>
</g>
<g>
</g>
<g>
</g>
<g>
</g>
<g>
</g>
<g>
</g>
<g>
</g>
</svg>
