<?xml version="1.0" encoding="iso-8859-1"?>
<!-- Generator: Adobe Illustrator 19.0.0, SVG Export Plug-In . SVG Version: 6.00 Build 0)  -->
<svg xmlns="http://www.w3.org/2000/svg" xmlns:xlink="http://www.w3.org/1999/xlink" version="1.1" id="Layer_1" x="0px" y="0px" viewBox="0 0 512 512" style="enable-background:new 0 0 512 512;" xml:space="preserve" width="512px" height="512px">
<g>
	<g>
		<path d="M508.707,374.033c-24.123-16.36-55.298-16.36-79.421,0c-19.007,12.891-43.57,12.891-62.577,0    c-24.123-16.36-55.298-16.36-79.421,0c-19.007,12.891-43.571,12.891-62.578,0c-24.123-16.36-55.298-16.36-79.421,0    c-19.007,12.891-43.57,12.89-62.577,0c-24.123-16.36-55.298-16.36-79.421,0c-3.429,2.326-4.325,6.991-1.999,10.421    c2.326,3.429,6.991,4.324,10.421,1.999c19.007-12.89,43.57-12.89,62.577,0c24.123,16.36,55.298,16.361,79.421,0    c19.008-12.89,43.571-12.89,62.577,0c24.124,16.361,55.299,16.361,79.422,0c19.007-12.89,43.569-12.891,62.577,0    c12.063,8.181,25.884,12.271,39.71,12.27c13.822-0.001,27.65-4.091,39.71-12.27c19.007-12.889,43.57-12.89,62.577,0    c3.431,2.326,8.095,1.432,10.421-1.999C513.031,381.025,512.137,376.359,508.707,374.033z" fill="#4989c7"/>
	</g>
</g>
<g>
	<g>
		<path d="M508.707,424.028c-24.123-16.36-55.298-16.36-79.421,0c-19.007,12.891-43.57,12.892-62.577,0    c-24.123-16.36-55.298-16.36-79.421,0c-19.007,12.891-43.571,12.891-62.578,0c-24.123-16.36-55.298-16.36-79.421,0    c-19.007,12.891-43.57,12.89-62.577,0c-24.123-16.36-55.298-16.36-79.421,0c-3.429,2.326-4.325,6.991-1.999,10.421    c2.326,3.43,6.991,4.325,10.421,1.999c19.007-12.89,43.57-12.89,62.577,0c24.123,16.361,55.297,16.361,79.421,0    c19.008-12.89,43.571-12.89,62.577,0c24.124,16.361,55.299,16.361,79.422,0c19.007-12.89,43.569-12.891,62.577,0    c12.063,8.181,25.884,12.271,39.71,12.27c13.822-0.001,27.65-4.091,39.71-12.27c19.007-12.889,43.57-12.89,62.577,0    c3.431,2.327,8.095,1.432,10.421-1.999C513.032,431.019,512.138,426.353,508.707,424.028z" fill="#4989c7"/>
	</g>
</g>
<g>
	<g>
		<path d="M508.707,324.039c-24.123-16.36-55.298-16.36-79.421,0c-11.701,7.936-25.507,10.978-38.827,9.143V149.902    c0-17.423,14.175-31.599,31.599-31.599c15.169,0,27.51-12.34,27.51-27.51c0-15.169-12.341-27.51-27.51-27.51    c-13.788,0-27.004,3.181-39.281,9.454c-3.689,1.886-5.153,6.405-3.267,10.095c1.886,3.69,6.407,5.151,10.095,3.267    c10.144-5.184,21.063-7.812,32.454-7.812c6.896,0,12.505,5.609,12.505,12.505s-5.609,12.505-12.505,12.505    c-25.697,0-46.605,20.907-46.605,46.604v177.996c-8.424-3.821-16.277-8.996-25.009-12.088V149.902    c0-2.118,0.123-4.235,0.298-6.344c0.006-0.074,0.004-0.147,0.008-0.22c1.377-14.865,7.401-29.01,17.311-40.39    c2.722-3.125,2.395-7.864-0.73-10.585c-3.125-2.722-7.864-2.394-10.585,0.73c-10.519,12.078-17.403,26.738-20.061,42.302h-22.54    c-4.144,0-7.503,3.359-7.503,7.503c0,4.143,3.359,7.503,7.503,7.503h21.295v25.009c0,0-178.102,0-178.188,0    c-7.537,0-13.489-7.18-12.301-14.585c0.944-5.892,6.343-10.424,12.301-10.424h126.883c4.143,0,7.503-3.359,7.503-7.503    c0-4.144-3.359-7.503-7.503-7.503H166.283c5.3-10.278,15.987-17.093,28.07-17.093c15.17,0,27.51-12.341,27.51-27.51    s-12.34-27.51-27.51-27.51c-11.19,0-22.12,2.134-32.487,6.342c-3.839,1.559-5.688,5.935-4.13,9.775    c1.56,3.839,5.936,5.687,9.775,4.13c8.565-3.477,17.595-5.241,26.842-5.241c6.896,0,12.505,5.609,12.505,12.505    s-5.609,12.505-12.505,12.505c-20.778,0-38.767,13.658-44.617,33.151c-10.063,2.863-17.787,11.319-19.588,21.781    c-0.01,0.055-0.02,0.11-0.03,0.165c-0.65,3.881-0.445,7.894,0.581,11.692c2.306,8.621,8.658,15.597,17.049,18.654v44.622    c-8.391,3.058-14.743,10.033-17.049,18.654c-1.248,4.667-1.268,9.669,0,14.361c2.306,8.621,8.658,15.597,17.049,18.654v36.473    l-25.009,8.968V149.902c0-17.927,6.691-35.097,18.842-48.348c2.8-3.054,2.595-7.8-0.459-10.601    c-3.054-2.801-7.801-2.595-10.601,0.459c-14.695,16.026-22.788,36.797-22.788,58.488v183.445c-8.758-1-17.341-4.102-25.019-9.308    c-24.123-16.36-55.298-16.36-79.421,0c-3.429,2.326-4.325,6.991-1.999,10.421c2.326,3.429,6.991,4.325,10.421,1.999    c19.007-12.89,43.57-12.89,62.577,0c24.123,16.36,55.298,16.361,79.421,0c18.758-12.719,43.817-12.723,62.577,0    c24.124,16.36,55.299,16.36,79.422,0c13.393-9.082,29.544-11.756,44.566-8.039l18.672,8.469    c11.611,7.693,25.095,11.841,39.049,11.84c13.822-0.001,27.65-4.091,39.71-12.27c19.007-12.889,43.57-12.89,62.577,0    c3.431,2.326,8.095,1.432,10.421-1.999C513.031,331.03,512.137,326.365,508.707,324.039z M335.437,312.289    c-16.554-2.009-33.628,1.903-48.149,11.75c-19.007,12.891-43.571,12.891-62.578,0c-18.615-12.624-41.426-15.497-61.959-8.637    V286.71h172.687V312.289z M335.439,271.703c0,0-178.137,0-178.189,0c-0.827,0-1.685-0.086-2.497-0.251    c-0.054-0.011-0.105-0.028-0.159-0.039c-4.398-0.955-7.941-4.227-9.275-8.472c-0.004-0.013-0.009-0.026-0.013-0.039    c-0.728-2.383-0.741-5.025,0-7.408c0.004-0.013,0.009-0.026,0.013-0.039c1.334-4.245,4.878-7.516,9.275-8.472    c0.054-0.011,0.105-0.028,0.159-0.039c0.821-0.167,1.659-0.251,2.497-0.251h32.157c4.143,0,7.503-3.359,7.503-7.503    c0-4.143-3.359-7.503-7.503-7.503h-26.656v-41.273h172.687v41.274h0h-116.02c-4.143,0-7.503,3.359-7.503,7.503    s3.359,7.503,7.503,7.503h116.021V271.703z" fill="#4989c7"/>
	</g>
</g>
<g>
</g>
<g>
</g>
<g>
</g>
<g>
</g>
<g>
</g>
<g>
</g>
<g>
</g>
<g>
</g>
<g>
</g>
<g>
</g>
<g>
</g>
<g>
</g>
<g>
</g>
<g>
</g>
<g>
</g>
</svg>
