<?xml version="1.0" encoding="utf-8"?>
<!-- Generator: Adobe Illustrator 17.0.0, SVG Export Plug-In . SVG Version: 6.00 Build 0)  -->
<!DOCTYPE svg PUBLIC "-//W3C//DTD SVG 1.1//EN" "http://www.w3.org/Graphics/SVG/1.1/DTD/svg11.dtd">
<svg version="1.1" id="Ebene_1" xmlns="http://www.w3.org/2000/svg" xmlns:xlink="http://www.w3.org/1999/xlink" x="0px" y="0px"
	 width="810.464px" height="151.964px" viewBox="19.965 16.955 810.464 151.964"
	 enable-background="new 19.965 16.955 810.464 151.964" xml:space="preserve">
<g>
	<polygon fill="#D0DCE8" points="523.91,112.39 524.26,112.816 524.708,113.137 525.222,113.327 525.228,113.327 525.775,113.381 
		526.315,113.29 526.812,113.06 527.237,112.708 527.229,112.708 526.769,112.827 526.295,112.842 525.835,112.745 525.403,112.543 
		525.032,112.248 524.736,111.876 524.526,111.442 524.427,110.977 524.435,110.494 524.552,110.031 524.77,109.608 
		525.077,109.239 525.074,109.239 524.572,109.472 524.152,109.821 523.834,110.278 523.641,110.792 523.59,111.343 523.68,111.891 
			"/>
	<polygon fill="#D0DCE8" points="247.839,87.972 247.882,87.977 247.882,87.693 247.839,87.69 247.839,87.251 247.811,87.242 
		247.811,87.685 247.769,87.676 247.769,87.96 247.811,87.966 247.808,89.374 247.822,89.374 247.834,89.374 	"/>
	<polygon fill="#D0DCE8" points="275.574,87.568 275.596,87.56 275.596,87.236 275.571,87.248 275.571,86.748 275.554,86.754 
		275.554,87.253 275.526,87.265 275.526,87.583 275.554,87.574 275.557,89.161 275.565,89.158 275.574,89.158 	"/>
	<polygon fill="#D0DCE8" points="245.699,87.577 246.326,87.577 246.326,87.256 245.699,87.256 245.699,86.759 245.299,86.759 
		245.299,87.256 244.674,87.256 244.674,87.577 245.296,87.577 245.293,89.161 245.495,89.161 245.696,89.161 	"/>
	<polygon fill="#D0DCE8" points="274.6,87.963 275.151,87.963 275.151,87.682 274.6,87.682 274.597,87.242 274.242,87.242 
		274.242,87.682 273.689,87.682 273.689,87.963 274.242,87.963 274.245,89.371 274.421,89.371 274.6,89.371 	"/>
	<polygon fill="#D0DCE8" points="219.197,65.058 219.22,64.944 219.872,64.95 219.872,64.802 219.242,64.799 219.242,64.691 
		219.22,64.799 218.564,64.796 218.564,64.944 219.197,64.944 	"/>
	<polygon fill="#D0DCE8" points="220.423,80.296 221.953,80.463 221.542,79.382 221.13,78.309 220.585,72.853 220.241,72.328 
		219.665,72.245 218.819,72.242 218.203,72.322 217.868,72.847 217.323,78.3 217.295,78.38 216.92,79.376 216.511,80.449 
		218.155,80.29 	"/>
	<polygon fill="#D0DCE8" points="218.947,72.174 219.512,72.177 219.554,72.183 219.855,72.228 219.54,69.344 219.379,66.414 
		219.305,66.392 219.259,66.392 219.177,66.392 219.14,66.392 219.052,66.412 218.887,69.344 218.558,72.228 218.902,72.183 	"/>
	<path fill="#D0DCE8" d="M830.429,146.588l-0.454-0.792v-1.116h-0.642l-1.655-2.864l0.488-2.438l0.255-2.532v-0.04l0,0l0.014-2.509
		v-0.028l-0.23-2.527l-0.466-2.498l-0.707-2.441l-0.934-2.362l-0.014-0.02l-1.155-2.274l-1.377-2.149l-1.573-2.007l-1.752-1.842
		l-1.922-1.664l-2.069-1.468l-0.077-0.051l-2.191-1.252l-2.296-1.033l-0.094-0.037l-2.359-0.798l-0.096-0.028l-0.119-0.028
		l-2.35-0.54l-0.094-0.017l-0.114-0.023l-0.122-0.017l-0.142-0.017l-2.149-0.261l-0.076-0.011l-0.083-0.006l-0.088-0.008
		l-0.096-0.008l-0.099-0.006l-0.102-0.008l-0.111-0.006l-0.119-0.006l-0.116-0.003l-0.125-0.006l-0.125-0.006l-0.131-0.003
		l-0.13-0.006h-0.133l-0.139-0.003l-0.136-0.003h-0.136h-0.139h-0.142h-0.139l-0.136,0.003l-0.142,0.003h-0.133l-0.136,0.006
		l-0.13,0.003l-0.128,0.006l-0.128,0.003l-0.122,0.006l-0.119,0.006l-0.114,0.006l-0.111,0.006l-0.105,0.009l-0.096,0.008
		l-0.094,0.008l-0.091,0.006l-0.082,0.011l-0.074,0.006l-2.16,0.27l-0.133,0.02l-0.122,0.017l-0.111,0.02l-0.094,0.02l-2.353,0.545
		l-0.117,0.031l-0.091,0.031l-2.362,0.801l-0.088,0.037l-2.294,1.036l-2.186,1.263l-0.08,0.048l-2.064,1.468l-1.913,1.666
		l-1.754,1.837l-1.567,2.004l-1.371,2.14l-1.158,2.265l-0.942,2.362l-0.69,2.376l-5.726-11.199l0.011-3.952l-0.502-1.241
		l-0.483-8.579l-0.525,8.553l-0.505,1.201l-0.011,3.702l-5.226,0.017l-0.119-7.611h-0.04h-0.057h-0.026l-0.156,7.611l-13.248,0.043
		l-0.071-7.662h-0.034h-0.06h-0.026l-0.085,7.662l-5.89,0.017l-0.031-0.426l-0.029,0.426l-18.034,0.06l-0.031-0.497l-0.028,0.497
		l-10.197,0.034l-0.119,4.823l-0.034-13.612l-0.48-1.201l-0.017-7.42l-0.023-0.011l-0.051-22.764l-0.065-0.15l-0.128-0.02
		l-1.164-10.946l-0.048-0.017l-0.003-1.244L713,65.14v-0.219l-0.23-0.17l-0.23,0.167v0.216l0.205,0.156l0.003,1.226h-0.026
		l-0.039,0.011l-0.131,1.272l-0.284-3.026l-0.011-0.014l-0.034-0.006l-0.003-1.3l0.17-0.125v-0.224l-0.014-0.042l-0.201-0.159
		l-0.213,0.156v0.224l0.017,0.04l0.159,0.131l0.003,1.297l-0.048,0.006l-1.044,11.406h-0.009l-3.719-39.501h0.057l-0.003-1.666
		h0.054l0.011-0.031l0.005-0.19l-0.008-0.233l-0.008-0.131h-0.028l-0.029-0.105v-0.789l0.003-0.182l-0.003-0.235l-0.017-0.142
		l-0.281-0.006l-0.011,0.045l-0.006,0.196l0.009,0.233v0.471h-0.054l-0.014,0.026l-0.003,0.196l0.006,0.236l0.014,0.128h0.026
		l0.028,0.111l0.006,1.982l0.023,0.085h0.034l-3.517,38.819l-0.889-9.039l-0.006-0.014l-0.04-0.006l-0.003-1.24l0.176-0.122
		l-0.003-0.219l-0.023-0.04l-0.187-0.15l-0.213,0.148v0.218l0.023,0.04l0.147,0.119l0.006,1.246l-0.042,0.003l-0.321,3.418
		l-0.559-5.181l-0.057-0.017h-0.008l-0.006-1.292l0.213-0.153v-0.227l-0.241-0.179l-0.241,0.173v0.227l0.193,0.145l0.006,1.306
		h-0.008l-0.043,0.014l-1.15,11.363l-0.27,0.04l0.088,24.064h-0.054l0.029,7.88l-0.534,1.289l0.051,13.867l-6.918-1.107
		l-1.743,0.329l-0.094-0.037l-1.209-0.201l0.02-1.223l-0.063-0.616l-0.25-0.579l-0.434-0.502l-0.585-0.383l-0.085-0.037
		l-0.619-0.222l0.037-2.487l-0.863-0.758h0.006l0.014-0.003l0.198-0.051l0.054-0.017l0.187-0.185l0.065-0.253l-0.06-0.25
		l-0.182-0.187l-0.014-0.014l-0.185-0.057l-0.026-0.003l0.037-2.529l-0.13,0.008l-0.034,2.529l-0.199,0.068l-0.182,0.184
		l-0.071,0.25l0.065,0.253l0.176,0.187l0.02,0.014l0.23,0.051l0.008,0.003h0.014l-0.883,0.749l-0.037,2.521l-0.69,0.261
		l-0.111,0.074l0.005-0.46l-1.243-1.189h0.008l0.017-0.003l0.005-0.003l0.255-0.068l0.065-0.017l0.241-0.239l0.088-0.326
		l-0.083-0.326l-0.23-0.238l-0.028-0.02l-0.233-0.074l-0.034-0.003l0.042-3.273l-0.162,0.011l-0.048,3.27l-0.247,0.088l-0.238,0.238
		l-0.091,0.326l0.082,0.326l0.233,0.239l0.023,0.02l0.298,0.068l0.011,0.003h0.014l0,0l-1.263,1.411l-0.026,2.155h-0.676
		l-0.488,0.119l-0.44,0.258l-0.681,0.559l-0.432,0.437l-0.306,0.514l-0.159,0.553l-0.014,1.278l-0.684,0.502l-17.583,0.003
		l0.003-0.017l0.037-13.152l-0.392,0.031l-0.003,0.091l-0.832,0.077l-0.44,0.233l-0.29,0.295l-0.287,0.545l-0.332,0.94l0.664,0.142
		l0.971-0.077l0.281-0.326l0.142-0.366l0.122-0.187l-0.031,11.772l-15.587,0.003l-0.321-0.5l-0.005-1.275l-0.148-0.556l-0.292-0.511
		l-0.36-0.613l-0.378-0.383l-0.465-0.256l-0.514-0.122H641.8l-0.014-2.149l-0.136-0.224l-1.056-1.189h0.017h0.011l0.287-0.071
		l0.037-0.017l0.233-0.241l0.082-0.326l-0.088-0.324l-0.235-0.241l-0.253-0.085l-0.023-3.267l-0.159-0.014l0.023,3.27l-0.037,0.006
		l-0.227,0.071l-0.037,0.02l-0.233,0.241l-0.082,0.326l0.088,0.324l0.236,0.241l0.06,0.017l0.267,0.071h0.014h0.011l-1.187,1.189
		l0.014,2.376h-1.124l-0.565,0.113v-0.003l-0.068-0.619l-0.264-0.579l-0.443-0.505l-0.582-0.394l-0.108-0.043l-0.585-0.219
		l-0.02-2.518l-0.877-0.749h0.009h0.008l0.227-0.051l0.023-0.017l0.179-0.187l0.062-0.253l-0.068-0.256l-0.185-0.179l-0.19-0.068
		l-0.023-2.527l-0.128-0.008l0.02,2.526l-0.023,0.006l-0.176,0.054l-0.026,0.017l-0.182,0.179l-0.062,0.256l0.068,0.253l0.185,0.187
		l0.048,0.017l0.201,0.051h0.014h0.005l-0.866,0.758l0.026,2.492l-0.588,0.21l-0.102,0.04l-0.576,0.386l-0.437,0.5l-0.25,0.582
		l-0.063,0.61l0.017,1.229l-0.159,0.031l-0.662-0.125l-12.879,2.121l0.837-41.295l0.658-0.122v-0.051h-0.136l0.136-0.028
		l-0.922-0.003l-0.085-0.006l-0.346-0.049l-0.295-0.068l0.042-2.052L618,80.25l-0.071-0.267v-2.121l-0.011-1.593h-0.003h0.037
		l0.082-0.244l0.063,0.009l0.094-0.006l-0.071-0.272l0.08-0.258l-0.153-0.017l-0.074-0.272l-0.091,0.006l-0.08,0.244l-0.065-0.006
		l-0.094,0.006l0.074,0.273l-0.083,0.256l0.156,0.014l0.071,0.273h0.031v0.02l-0.074,1.57l-0.082,2.123l-0.082,0.267l-0.131,0.267
		l-0.037,1.874l-0.403-0.173l-0.412-0.219l-0.392-0.256l-0.378-0.292l-0.36-0.329l-0.341-0.358l-0.304-0.375v-0.003l-0.017-0.173
		l-0.009-0.003l-0.003-0.02v-0.037v-0.054V80.1l0.02-0.133v-0.045l0.034-0.094l0.037-0.125v-0.06l-0.003-0.009v-0.031l-0.003-0.006
		v-0.028l-0.003-0.006l0.003-0.034l-0.037-0.051h-0.003l0.003-0.028l-0.017-0.182l-0.014-0.003l0.017-0.928l0.062-0.014l0.003-0.202
		l0.04-0.008l0.026-0.006l0.006-0.21l-0.576-0.003V77.86l-0.167-0.011l-0.031-0.026l-0.02-0.023l0.023-0.003V77.57l0.026-0.165
		l0.003-0.014v-0.014l0,0v-0.003l0.005-0.014v-0.014l0.012-0.292l-0.003-0.125l0.244-0.008l-0.125-0.25l0.136-0.267l-0.057-0.003
		l-0.179,0.009l-0.005-0.028v-0.094l-0.065-0.131h-0.006l-0.02-0.003l-0.003-0.011l0.006-0.009l0.003-0.011l0.031,0.009l0.008-0.014
		l0.009-0.051l0.003-0.023l0.011-0.006l-0.008-0.003v-0.034l0.008-0.014l0.009-0.014l0.014-0.119l-0.071-0.023l-0.031-0.003
		l-0.04-0.006l0.23-12.062l0.031-0.108V63.55l-0.026-0.108l0.04-0.054l0.772-0.136V63.15l-0.014-0.295l-1.28-0.619l-0.017-0.156
		l0.023-0.162l0.031-0.159l0.045-0.159L614,61.441l-0.048-0.159l0.023-0.162l0.023-0.156l0.088-0.162l-0.026-0.159l-0.099-0.159
		l-0.071-0.153l-0.039-0.162l-0.014-0.156l-0.011-0.162h-0.003l0,0h-0.003l0,0l0,0h-0.005l0,0l0,0v0.003l-0.017,0.159l-0.02,0.142
		l-0.003,0.014l-0.005,0.02l-0.037,0.142l-0.077,0.159l-0.108,0.162l-0.034,0.159l0.088,0.159l0.017,0.156l0.017,0.159l-0.057,0.162
		l-0.023,0.162l0.043,0.156l0.023,0.162l0.02,0.156l-0.003,0.011l-0.653-0.318l0.011-0.528l-0.312-0.312l-0.292-0.335l-0.284-0.36
		l-0.261-0.383l-0.25-0.4l-0.23-0.42l-0.219-0.443l-0.199-0.457l-0.176-0.477l-0.162-0.485l-0.139-0.505l-0.749-0.463h-0.188
		l0.031-0.006l0.068-0.011l0.042-0.011l0.017-0.014l0.113-0.213l0.352-0.344v-0.003l0.344-0.403l0.417-0.508l0.042-0.054
		l0.037-0.054l0.045-0.054l0.037-0.057l0.04-0.048l0.034-0.048l0.034-0.04l0.029-0.037l0.026-0.031l0.017-0.023l0.017-0.02
		l0.011-0.011l0.094-0.128l-0.062-0.548l-0.156-0.162l-0.068-0.054l-0.204-0.136l-0.176-0.167l-0.187-0.196l-0.182-0.196
		l-0.164-0.207l-0.159-0.219l-0.148-0.221l-0.139-0.227l-0.131-0.235l-0.116-0.241l0.082-4.528l0.054-0.216l0.065-0.076l0.164-0.08
		l0.142-0.082l0.023-0.026l0.054-0.085l-0.051-0.082l-0.08-0.082l-0.076-0.085l-0.017-0.014l-0.099-0.08l-0.133-0.071l-0.105-0.167
		v-0.003l-0.008-0.003h-0.014l-0.009-0.003l0.096-5.473l0.244-0.077l0.287-0.088l0.289-0.085l0.287-0.082l0.287-0.079l0.292-0.077
		l0.292-0.074l0.295-0.071l0.29-0.068l0.292-0.065l0.295-0.065l0.301-0.06h0.003l0.028-0.026l0.119-0.105l0.091-0.074l0.06-0.051
		l0.15-0.125l0.057-0.048l0.091-0.074l0.094-0.077l0.057-0.045l0.153-0.122l0.051-0.04l0.096-0.076l0.099-0.08l0.057-0.04
		l0.15-0.119l0.159-0.116l0.145-0.108l0.006-0.006l0.011-0.008l0.148-0.102v-0.006V37.78l-0.003-0.006l-0.003-0.006l0.86-0.051
		l0.054-0.216h0.003l0.014-0.048l-0.008-0.003l0.071-0.272l0.145-0.065l0.026-0.15l-0.023-0.017l-0.579-0.048v0.142l0.023,0.014
		l0.051-0.003l-0.077,0.083l-0.426,0.023l0.173-0.233l-0.287-0.222l-0.023-0.014l-0.298,0.258l0.17,0.224l-0.448,0.026l-0.074-0.071
		l0.091-0.003l0.003-0.147l-0.023-0.014l-0.579,0.113l0.017,0.153l0.026,0.011l0.119,0.042l0.057,0.256h-0.005l0.008,0.045
		l0.006,0.003l0.048,0.219l0.017,0.014l0.786-0.042l-0.108,0.079l-0.156,0.111l-0.154,0.119l-0.153,0.116l-0.153,0.117l-0.154,0.125
		l-0.153,0.119l-0.148,0.125l-0.153,0.119l-0.145,0.125l-0.148,0.125L613,39.174l-0.287,0.06l-0.292,0.06l-0.295,0.068l-0.292,0.068
		l-0.292,0.071l-0.292,0.074l-0.29,0.079l-0.295,0.08l-0.287,0.082l-0.238,0.071l-0.054,0.014l-0.057,0.017l-0.227,0.071
		l-0.221,0.071l0.011-0.801l0.818-0.043l0.051-0.218h0.006l0.011-0.051l-0.005-0.003l0.065-0.267l0.145-0.068l0.023-0.148
		l-0.023-0.014l-0.571-0.051l-0.003,0.142l0.026,0.014l0.045-0.003l-0.071,0.079l-0.423,0.023l0.173-0.227l-0.287-0.222
		l-0.026-0.011l-0.295,0.253l0.173,0.222l-0.446,0.026l-0.071-0.074l0.085-0.003l0.005-0.145l-0.026-0.014l-0.573,0.117l0.02,0.15
		l0.023,0.014l0.125,0.04l0.051,0.253h-0.006l0.006,0.048l0.008,0.006l0.045,0.213l0.02,0.011l0.798-0.042l-0.014,0.803
		l-0.227-0.051l-0.287-0.054l-0.284-0.057l-0.287-0.054l-0.284-0.045l-0.287-0.046l-0.284-0.042l-0.289-0.04l-0.281-0.04
		l-0.289-0.034l-0.287-0.028l-0.278-0.028l-0.136-0.105l-0.145-0.105l-0.142-0.11l-0.151-0.105l-0.142-0.105l-0.151-0.105
		l-0.145-0.102l-0.151-0.099l-0.15-0.105l-0.153-0.094l-0.148-0.099l-0.108-0.065l0.803-0.048l0.051-0.213h0.006l0.011-0.051
		l-0.006-0.003l0.06-0.267l0.148-0.065l0.026-0.151l-0.026-0.014l-0.568-0.054l-0.003,0.145l0.023,0.014l0.048-0.003l-0.074,0.076
		l-0.414,0.023l0.17-0.224l-0.287-0.219l-0.026-0.017l-0.292,0.255l0.176,0.224l-0.443,0.026l-0.071-0.074l0.088-0.006l0.003-0.145
		l-0.028-0.011l-0.565,0.114l0.017,0.151l0.026,0.014l0.117,0.04l0.054,0.253h-0.005l0.008,0.045l0.006,0.006l0.048,0.216
		l0.025,0.014l0.815-0.048l-0.003,0.006v0.003l0.003,0.009h0.003l0.156,0.097l0.148,0.097l0.15,0.099l0.148,0.099l0.151,0.099
		l0.148,0.102l0.15,0.105l0.142,0.105l0.142,0.105l0.148,0.11l0.142,0.105l0.151,0.113h0.003l0.295,0.034l0.287,0.028l0.29,0.034
		l0.284,0.037l0.287,0.037l0.284,0.046l0.284,0.045l0.284,0.045l0.287,0.054l0.281,0.057l0.287,0.054l0.233,0.051l-0.099,5.47
		h-0.011l-0.014,0.006h-0.005l-0.034,0.06l-0.08,0.114l-0.139,0.079l-0.105,0.088l-0.076,0.082l-0.077,0.085l-0.023,0.02
		l-0.054,0.085l0.051,0.085l0.026,0.02l0.142,0.077l0.151,0.074l0.068,0.074l0.083,0.085l-0.111,4.653l-0.133,0.247l-0.133,0.241
		l-0.148,0.235l-0.156,0.227l-0.167,0.221l-0.176,0.216l-0.185,0.207l-0.164,0.173l-0.182,0.17l-0.255,0.176l-0.054,0.054
		l-0.162,0.176l-0.082,0.545l0.091,0.125l0.014,0.009l0.017,0.02l0.023,0.023l0.023,0.028l0.031,0.037l0.029,0.037l0.037,0.051
		l0.04,0.046l0.037,0.054l0.039,0.051l0.04,0.051l0.037,0.054l0.397,0.491l0.324,0.386l-0.011,0.008l0.344,0.332l0.102,0.207
		l0.017,0.011l0.051,0.011l0.068,0.008l-0.167,0.071l-0.761,0.582l-0.159,0.525l-0.176,0.511l-0.193,0.502l-0.216,0.483
		l-0.224,0.474l-0.247,0.451l-0.258,0.44l-0.276,0.414l-0.289,0.398l-0.301,0.375l-0.312,0.355l-0.008,0.451l-0.644,0.224
		l0.008-0.04l0.026-0.159l0.051-0.156l-0.017-0.159l-0.051-0.153l0.023-0.159l0.026-0.156l0.085-0.159l-0.026-0.156l-0.102-0.156
		l-0.068-0.153l-0.037-0.159l-0.017-0.153V60.55l-0.008-0.159h-0.003l0,0l-0.003-0.003h-0.003l0,0h-0.003l-0.003,0.003l0,0h-0.003
		l-0.011,0.159l-0.023,0.159l-0.043,0.159l-0.077,0.156l-0.105,0.162l-0.031,0.156l0.082,0.156l0.02,0.156l0.014,0.156l-0.057,0.156
		l-0.023,0.159l0.045,0.156l0.023,0.156l0.02,0.136l-1.408,0.488l-0.003,0.102l0.094,0.292l0.699,0.091l0.039,0.06l-0.028,0.108
		v0.102l0.023,0.105l0.011-0.014l-0.19,11.483h-0.034l-0.12-0.253l-0.06-0.006l-0.133,0.275l-0.261,0.012l0.128,0.255l-0.139,0.276
		l0.057,0.006l0.21-0.011l0.122,0.253l0.02,0.003l0,0h-0.003v0.003l-0.008,0.19l-0.003,0.014v0.051l-0.003,0.094l-0.025,0.099
		l0.006,0.006v0.006h0.014l-0.051,1.133v0.034l-0.023,0.006l-0.023,0.008h-0.36l-0.278,0.074l-0.003,0.204l0.06,0.003l-0.003,0.207
		h0.048h0.014l-0.014,1.062l-0.051,0.003v0.051l0.04,0.077v0.003v0.068l-0.031,0.048l-0.037,0.051v0.062l0.031,0.125l0.031,0.094
		l-0.003,0.043l0.008,0.057l-0.006,0.258l-0.051,0.006v0.051l0.048,0.085v0.017l-0.048,0.006l-0.227,0.605l-0.341,0.397
		l-0.355,0.363l-0.369,0.332l-0.38,0.301l-0.395,0.258l-0.352,0.193l0.031-1.701l-0.122-0.256l-0.065-0.258l-0.008-2.058
		l-0.017-1.547h-0.003l0.034-0.003l0.079-0.244l0.077,0.008l0.085-0.003l-0.074-0.267l0.085-0.247l-0.162-0.014l-0.074-0.267
		l-0.085,0.003l-0.083,0.238l-0.074-0.006h-0.085l0.071,0.269l-0.08,0.25l0.156,0.014l0.077,0.267h0.031v0.014l-0.068,1.533
		l-0.074,2.061l-0.074,0.258l-0.128,0.261l-0.029,1.907l-1.553,0.344h0.114l-0.116,0.028v0.048l0.616,0.003l-0.446,28.194
		l-0.045,0.043l-0.568,0.36l-0.25,0.363l-0.003,0.363l0.235,0.366l0.258,0.346l-1.147,0.011v0.244h-0.886l-0.233,0.999l-0.02,1.135
		l-5.036-0.431l-47.242,0.068l-0.19-1.519v-0.071l-0.096-2.771h-0.003h-0.006h-0.005h-0.008h-0.011h-0.011h-0.012h-0.011h-0.011
		h-0.005h-0.003l0,0l-0.119,2.771v0.071l-0.199,1.519l-2.461,0.003l0.014-0.165l0.117-0.187l-0.196-1.59v-0.068l-0.096-2.606l0,0
		h-0.003h-0.005h-0.009h-0.008h-0.011h-0.008h-0.009h-0.011h-0.005h-0.006h-0.003l-0.108,2.606v0.065l-0.207,1.59l0.12,0.19
		l0.011,0.165l-11.5,0.014l-1.854,0.006l-1.158-0.213v-2.104h-0.003l0,0h-0.006h-0.008h-0.008h-0.011h-0.011h-0.009h-0.008h-0.008
		h-0.008h-0.003l0,0v2.089l-7.017-1.275l-0.003-0.474l-0.096-0.023l-0.678-0.006v-0.242h0.148l0.034-0.006l-0.011-4.057
		l-0.076-0.003h-0.105v-0.258l0.125-0.003l0.037-0.003l-0.045-0.182l-0.054-0.185l-0.148-0.185l-0.227-0.182l-0.511-0.187
		l0.239-0.179l0.034-0.187l0.026-0.185l0.028-0.182l-0.034-0.184l-0.133-0.185l-0.164-0.185l-0.213-0.185l-0.312-0.182l-0.068-0.187
		l0.088-0.733l-0.105-0.738l-0.071-0.738l-0.045-0.735l-0.028-0.735l-0.031-0.741l-0.023-0.735l-0.017-0.735l0.011-0.151
		l-0.023-0.145l0,0l0.014,0.145h-0.003h-0.008l-0.003-0.145h-0.006l0,0l0,0l-0.008,0.145h-0.005h-0.006l0.017-0.145l0,0l-0.02,0.145
		l0.014,0.151l-0.014,0.735l-0.02,0.735l-0.031,0.741l-0.017,0.735l-0.043,0.735l-0.068,0.738l-0.102,0.735l0.091,0.735
		l-0.063,0.187l-0.312,0.182l-0.213,0.185l-0.167,0.185l-0.128,0.185l-0.034,0.184l0.031,0.182l0.029,0.185l0.031,0.187l0.241,0.179
		l-0.508,0.187l-0.233,0.182l-0.145,0.185l-0.048,0.185l-0.051,0.182l0.085,0.003l0.079,0.003v0.261h-0.145l-0.034,0.003
		l0.011,4.057l0.079,0.006h0.102v0.239l-0.766,0.011l0.003,0.468l-12.039,0.014l-1.258-0.213l-6.061,1.022l0.04-2.961l-0.04-0.008
		l-0.167-0.006l-0.289-0.003l-0.406-0.006l-0.514-0.003l-5.624-0.003l-5.079-2.819l-29.139-0.045l0.003-1.621l-2.311-0.006
		l-0.006,1.621h-0.605l0.003-1.624l-2.319-0.003v1.624l-2.702-0.006l-1.028-1.323l-0.888-1.735l-0.545-1.876l-0.057-0.599
		l0.125-0.153l0.318-0.392l0.051-0.292l-0.108-0.275l-0.224-0.19l-0.057-0.037l-0.227-0.043l-0.261-0.04l-0.338-0.034l-0.46-0.025
		l-0.082-0.003V101.9l0.204-0.338l0.082-0.201l-0.082-0.199l-0.04-0.028l-0.165-0.065l-0.003-2.257l-0.031-0.034l-0.102-0.026
		l-0.17-0.02l-0.227-0.014l-0.267-0.011l-0.363-0.006h-0.006l-0.014-8.249l0.463-0.051v-0.443l-0.463-0.042l-0.003-0.017l0.61-0.042
		v-0.454l-1.84-0.272l-0.256,0.054l-0.292-0.676l-0.329-1.098l-0.202-1.144l-0.068-1.167l-0.287-0.287l-0.36-0.173l-0.227-0.04
		l-0.165-0.003h-0.159l-0.233,0.034l-0.355,0.167l-0.281,0.281l-0.065,1.167l-0.19,1.138l-0.321,1.098l-0.281,0.656l-0.179-0.045
		l-1.896,0.244V89.8l0.61,0.054v0.008l-0.576,0.037v0.449l0.579,0.079l0.026,8.247l-0.307,0.003l-0.272,0.009l-0.23,0.014
		l-0.179,0.02l-0.11,0.023l-0.046,0.028l0.011,2.271l-0.153,0.063l-0.048,0.026l-0.082,0.201l0.082,0.446l0.082,0.193l0.054,0.028
		l0.068,0.026v0.031h-0.026l-0.468,0.023l-0.358,0.028l-0.261,0.04l-0.247,0.037l-0.071,0.042l-0.227,0.185l-0.102,0.278l0.051,0.29
		l0.139,0.4l0.182,0.219l0.096,0.034l0,0l0,0l0,0l0.02,0.009l-0.045,0.488l-0.54,1.882l-0.888,1.746l-1.028,1.323l-2.529-0.006
		l-0.008-1.632l-2.356-0.006l0.008,1.635h-0.616l-0.011-1.638l-2.359-0.003l0.012,1.638l-6.245-0.011v-0.085h-1.348l-1.811-0.159
		l-0.389-0.02h-0.525v-0.131l-0.261,0.148l-0.051,0.003l-1.743,0.176l-0.261,0.06l-15.394-0.028v-0.352l-2.413,0.003v0.346h-0.287
		l-0.863,0.471h-0.437l-1.101-0.5l0.006-8.227l-3.435,0.003l0.003-6.018v-1.814l-0.148-0.145l-0.46-0.131l-0.727-0.099l-0.474-0.037
		l-0.241-0.27l-0.755-0.769l-0.054-0.051l-0.426-0.403l-0.281-0.261l-0.02-0.02l0,0l-0.812-0.585l-0.832-0.542l-0.858-0.5
		l-0.874-0.454l-0.892-0.409l-0.857-0.344l-0.003-0.948h0.326v-1.169l-0.054-0.434h-0.292l-0.026-0.185h-1.888v0.187h-0.332v1.181
		l0.085,0.42h0.247v0.931l-0.96,0.363l-0.939,0.412l-0.926,0.454l-0.905,0.5l-0.877,0.545l-0.857,0.59h-0.02l-0.003,0.017
		l-0.295,0.261l-0.431,0.4l-0.738,0.746l-0.301,0.338l-0.63,0.046l-0.687,0.105l-0.406,0.133l-0.085,0.142l0.003,1.814l0.011,6.013
		l-3.756,0.003l0.02,7.903l-2.345,0.003l0.006,1.63l-11.162,0.003l-0.599,0.179l-0.003-0.267H345V109.8l-0.236-0.102l0.003,0.531
		h-0.661l-0.145-0.06l-0.003-0.824l-0.253-0.11l0.006,1.008l-1.91-0.752l-0.999-0.239v-0.389l-0.417-0.17l0.003,0.454l-0.559-0.133
		l-1.686-0.173l-0.281-0.02h-0.539l-0.403,0.02l-1.913,0.167v-0.006l-1.592,0.003v0.324l-0.821,0.167l-0.712,0.238l-0.102-0.031
		v0.068l-1.096,0.361l-0.003-0.781l-0.343-0.111l0.008,1.008l0.02,4.02l0.02,3.015l0.054,9.263l-13.447-0.02l-0.815-0.553
		l-0.44-0.006l0.017-14.546l-0.111-0.011l-0.894-7.244l-1.902-3.089l-4.216-2.007l-0.006-8.479l-1.059-0.233v-5.32l-1.709-0.471
		l-0.196-0.048l-0.275-0.003l-0.199,0.045l-1.695,0.451L303.49,85.4l0.008,4.94l-1.05,0.21l0.011,8.491l-4.193,1.973l-1.888,3.072
		l-0.883,7.256l-0.105,0.014l0.037,14.582h-0.326l-0.818,0.553l-5.107-0.008l-0.596-3.168l-0.023-6.915l-1.331-19.584l-9.581-0.003
		l-2.081-7.653l-0.599,2.225l-0.545-2.012l-0.988,3.693l-0.099-0.497l-0.383-0.003l-0.02-0.08l-0.991,0.003l-0.173-9.05
		l-1.039-1.135l-0.006-5.379l-0.119-5.987l-0.971,0.003l-8.635-47.409h-0.04l0.593-0.247v-0.744l-0.122-0.216l-0.519-0.21h0.136
		v-2.217l0.335-0.196l0.196-0.332h0.446v-0.383l-0.003-0.045h-0.446l-0.196-0.329l-0.335-0.193l-0.091-1.465h-0.196l-0.096,1.468
		l-0.335,0.193l-0.193,0.332h-0.449v0.386l0.006,0.043h0.446l0.193,0.332l0.332,0.19v2.174l0.003,0.043h0.133l-0.644,0.269v0.741
		l0.128,0.216l0.465,0.19H260.7l-8.848,47.426h-0.769l-0.344,5.981l-0.008,5.377l-1.016,1.133l-0.179,9.038l-0.531-0.003
		l-0.02,0.079h-0.301l-0.863-3.188l-1.141,4.145l-1.187-4.357L243.38,96.8l-8.874-0.003l-1.905,19.528l-0.003,0.329l-1.272-1.053
		l-1.084,0.003l0.014-2.416l-0.534,0.026l-0.264-0.318l0.525-0.02l0.037-6.645l0.278-0.003l-0.187-1.11l-0.185-1.113l-0.227-5.578
		l-0.153-0.556l-0.162-0.108l-0.17-0.006h-0.256l-0.196,0.006l-0.151,0.108l-0.153,0.556l-0.037,0.011l-0.074,1.451l-0.042-1.05
		l-0.148-0.514l-0.145-0.102l-0.156-0.006h-0.088l0.006-1.607l-0.269-0.287l0.02-3.639l-0.094-0.006l-0.006-0.755l-0.026-0.681
		l-0.037-0.437l-0.051-0.122l-0.051,0.202l-0.043,0.499l-0.031,0.715l-0.011,0.565l-0.511-0.023l-0.173-1.187l-0.329-1.189
		l-0.46-1.113l-0.242-0.417l0.014-0.471l-0.011-0.497l-0.026-0.182h-0.752l-0.253-0.321l-0.778-0.735l-0.858-0.576l-1.998-0.167
		l-0.409-0.361l1.496,0.131v-0.73l-0.542-0.048l0.009-4.048v-0.247l-1.198-0.128l-1.777-0.003l-1.283,0.122l-0.04,0.176v0.082
		l-0.003,4.045l-0.488,0.04l-0.054,0.182v0.571l0.054-0.026l1.604-0.125l-0.349,0.363l-2.143,0.159l-0.837,0.573l-0.761,0.735
		l-0.247,0.321h-0.906v0.241v0.522v0.497l0.003,0.139l-0.091,0.167l-0.454,1.11l-0.321,1.192l-0.179,1.192l-0.826,0.037
		l-0.003-1.785l-0.003-0.199v0.122l0.003,1.862h-0.003l0.006,3.642l-0.264,0.29l0.014,6.722l-0.207-4.482l-0.003-0.011l-0.06-0.207
		l-0.009-0.19l-0.003-0.011l-0.156-0.556l-0.156-0.111l-0.182-0.006h-0.261l-0.182,0.006l-0.156,0.108l-0.153,0.559l-0.233,5.584
		l-0.19,1.113l-0.179,1.116h0.267l0.017,6.041v0.028l-0.307,0.173l0.25,0.008v0.409l0.057-0.028v0.023l-0.534,0.307l0.269,0.011
		l0.006,2.418l-1.763,0.003l-0.301,0.264l0.06-1.362l-0.678-0.426l-0.602-0.491l-0.517-0.556l-0.423-0.608l-0.321-0.647
		l-0.207-0.676l-0.826-1.26l-1.036-1.124l-1.223-0.971l-1.365-0.787l-1.479-0.582l-1.55-0.375l0.111-2.978l-0.173-0.165l0.318-8.513
		l-1.121,0.006V94.35l-0.173,0.026h-0.642l0.099-2.861l-0.707,0.167l-0.108,2.972h-0.423v-0.023l-0.154,0.023l-1.215,0.003
		l-0.247,7.278l-35.989-0.028l0.023-3.387h-1.056v-0.071l-7.934,0.003v3.446l-33.787-0.028l-0.187-7.114l-1.156,0.003l-0.261-0.023
		l0.196,7.131h-1.314l0.44-0.023l-0.276-10.007l-1.189-0.159l0.079,2.81l-0.923,0.003l-0.292-0.026v0.026h-0.939l0.247,8.292
		l-0.287,0.162l0.088,2.901l-1.607,0.355l-1.53,0.565l-1.417,0.752l-1.263,0.937l-1.076,1.09l-0.857,1.215l-0.221,0.653
		l-0.335,0.624l-0.44,0.585l-0.528,0.536l-0.625,0.471l-0.698,0.406l0.471,12.232l-1.394-0.587l0.003-10.526v-0.764l-0.08-2.081
		l-0.241-2.058l-0.397-2.015l-0.548-1.933l-0.698-1.84l-0.667-1.567l-0.815-1.661l-0.931-1.479l-1.036-1.283L89.47,97.41
		l-1.198-0.837l-1.246-0.59l-0.976-0.261l0.017-10.225l-0.287-1.629l-0.284-0.678l-1.701-1.405l-0.571-0.128l-0.378-5.022
		l-0.02-0.051l0.443-0.375v-0.661l-0.076-0.196l-0.446-0.403l-0.219-0.051h-0.065l0.005-1.942l0.099,0.253l0.003-0.429l-0.102-0.253
		l0.003-0.664l-0.031-0.082h0.051v-0.102h0.054l0.216-0.15l0.136-0.253l0.108-0.525l0.003-0.661l0.159-0.315l0.281-0.253
		l0.131-0.281l-0.216-0.099l-0.193-0.003l-0.128,0.196l-0.165,0.42l-0.099,0.656l-0.003,0.27l-0.068,0.142l-0.295-0.003L82.2,70.633
		l-0.304-0.454l-0.261-0.275l-0.258-0.082l-0.219-0.003l-0.233,0.185l-0.074,0.247v0.247l0.116,0.241l0.19,0.207h0.111l0.037-0.099
		l0.131-0.139h0.165l0.193,0.139l0.153,0.281l0.125,0.332l0.128,0.148l0.131,0.068h0.054v0.105h0.02v0.585l-0.102-0.256v0.431
		l0.102,0.253L82.396,74.9h-0.145l-0.17,0.06l-0.494,0.42l-0.003,0.664l0.082,0.187l0.343,0.318l-0.006,0.003l-0.415,5.05
		l-0.707,0.224l-1.882,1.451l-0.304,1.595l-0.034,10.841l-1.419,0.375l-1.377,0.622l-1.317,0.857l-1.238,1.084l-1.144,1.297
		l-1.028,1.493l-0.9,1.672l-0.755,1.822l-0.605,1.95l-0.446,2.053l-0.272,2.121l-0.099,2.16l-0.003,0.8l-0.048,9.657l-33.684,0.216
		l-0.139-37.204l-0.662-0.718l-0.014-3.202l-1.93-0.789l-0.131-0.082l-0.048-11.832l-0.398-0.522l-0.536-0.429l-0.392-0.199
		l-0.559-0.267l-0.61-0.125l-0.449-0.068l0.477-1.362l-0.903-1.465l-0.25-4.426L27.7,61.18l-0.159-0.003l-0.08,0.023l-0.207,4.417
		l-0.897,1.436l0.494,1.371l-0.477,0.062l-0.627,0.105l-0.568,0.25l-0.335,0.187l-0.534,0.417l-0.397,0.511l0.062,11.86l-2.294,0.84
		l0.023,3.216l-0.701,0.712l0.216,38.053l-0.099,0.003l-0.046,0.06l-0.431,0.619l-0.048,0.074l0.003,0.233l-0.17,0.003l-0.096,0.142
		l0.008,1.658l0.031,5.189l-0.224,0.003l-0.182,0.343l0.068,11.715h-0.068v24.24h810.011v-21.935l0.213-0.083l-0.179-0.318
		L830.429,146.588z M610.085,55.014l0.303-0.545h0.009l-0.301,0.545l0,0H610.085L610.085,55.014z M609.239,54.041h0.011
		l-0.003,0.397h-0.011L609.239,54.041z M609.237,54.441h0.011l0,0v0.003h-0.009h-0.003L609.237,54.441L609.237,54.441z
		 M607.837,77.67h0.003H607.837L607.837,77.67z M603.718,77.801L603.718,77.801L603.718,77.801L603.718,77.801z M603.556,80.242
		h0.003l-0.003,0.003V80.242z M603.454,77.764L603.454,77.764L603.454,77.764L603.454,77.764z M526.357,118.334L526.357,118.334
		l-0.048-0.412L526.357,118.334z M526.173,117.849L526.173,117.849l-0.014-0.125L526.173,117.849z M212.932,88.772h0.111
		l-0.114,0.196L212.932,88.772z"/>
	<polygon fill="#D0DCE8" points="437.128,83.938 436.929,83.455 436.799,83.399 436.495,83.268 436.654,83.222 436.489,78.788 
		436.841,79.109 436.841,79.087 436.637,78.612 437.082,78.354 437.085,78.334 436.56,78.38 436.447,77.857 436.33,78.377 
		435.808,78.317 435.808,78.34 436.254,78.61 436.052,79.075 436.052,79.098 436.404,78.786 436.265,83.222 436.413,83.268 
		435.984,83.447 435.788,83.924 435.984,84.401 436.461,84.605 436.932,84.412 	"/>
</g>
</svg>
